<svg width="1200" height="700" viewBox="0 0 1200 700" fill="none" xmlns="http://www.w3.org/2000/svg">
  <rect width="1200" height="700" rx="36" fill="#FFF7ED"/>
  <rect x="70" y="70" width="1060" height="560" rx="24" fill="#FFF" stroke="#F59E0B" stroke-width="6"/>
  <rect x="110" y="120" width="260" height="140" rx="20" fill="#FDE68A"/>
  <rect x="400" y="120" width="300" height="220" rx="24" fill="#FB923C"/>
  <rect x="730" y="120" width="360" height="160" rx="24" fill="#F97316"/>
  <rect x="110" y="310" width="980" height="260" rx="24" fill="#FFF3E0"/>
  <circle cx="240" cy="440" r="80" fill="#EA580C"/>
  <path d="M220 390C220 390 280 345 320 390" stroke="#FDE68A" stroke-width="18" stroke-linecap="round"/>
  <path d="M170 420C170 420 208 370 252 420" stroke="#FDE68A" stroke-width="18" stroke-linecap="round"/>
  <rect x="460" y="360" width="250" height="24" rx="12" fill="#FB923C"/>
  <rect x="460" y="410" width="180" height="18" rx="9" fill="#FDBA74"/>
  <rect x="460" y="440" width="220" height="18" rx="9" fill="#FDBA74"/>
  <text x="110" y="610" fill="#9A2C00" font-family="Arial, sans-serif" font-size="46" font-weight="700">Fooduzzi</text>
</svg>