<svg width="1200" height="700" viewBox="0 0 1200 700" fill="none" xmlns="http://www.w3.org/2000/svg">
  <rect width="1200" height="700" rx="36" fill="#F5F3FF"/>
  <rect x="90" y="90" width="1020" height="520" rx="24" fill="#FFFFFF" stroke="#8B5CF6" stroke-width="6"/>
  <rect x="130" y="150" width="300" height="180" rx="24" fill="#DDD6FE"/>
  <rect x="470" y="150" width="260" height="180" rx="24" fill="#A78BFA"/>
  <rect x="760" y="150" width="310" height="180" rx="24" fill="#7C3AED"/>
  <rect x="130" y="360" width="940" height="210" rx="24" fill="#F5F3FF"/>
  <path d="M220 500L280 450L340 480L410 400" stroke="#7C3AED" stroke-width="16" stroke-linecap="round" stroke-linejoin="round"/>
  <circle cx="220" cy="500" r="12" fill="#7C3AED"/>
  <circle cx="280" cy="450" r="12" fill="#7C3AED"/>
  <circle cx="340" cy="480" r="12" fill="#7C3AED"/>
  <circle cx="410" cy="400" r="12" fill="#7C3AED"/>
  <rect x="480" y="390" width="180" height="18" rx="9" fill="#C4B5FD"/>
  <rect x="480" y="425" width="140" height="18" rx="9" fill="#C4B5FD"/>
  <text x="130" y="620" fill="#5B21B6" font-family="Arial, sans-serif" font-size="46" font-weight="700">Nexes Job</text>
</svg>